<?xml version="1.0" standalone="no"?><!DOCTYPE svg PUBLIC "-//W3C//DTD SVG 1.1//EN" "http://www.w3.org/Graphics/SVG/1.1/DTD/svg11.dtd"><svg t="1763024865127" class="icon" viewBox="0 0 1024 1024" version="1.1" xmlns="http://www.w3.org/2000/svg" p-id="5539" xmlns:xlink="http://www.w3.org/1999/xlink" width="200" height="200"><path d="M515.582162 1023.994371A516.343116 516.343116 0 0 1 204.957513 921.646875a502.014467 502.014467 0 0 1-113.60572-122.816995A486.662342 486.662342 0 0 1 20.73202 642.238212a511.737479 511.737479 0 0 1 990.723759-259.962639 40.938998 40.938998 0 0 1-3.582162 29.169036 36.333361 36.333361 0 0 1-23.539924 17.399074 36.845098 36.845098 0 0 1-29.169036-3.582162 38.892048 38.892048 0 0 1-18.42255-23.539924 436.000332 436.000332 0 0 0-420.13647-324.953299 446.235081 446.235081 0 0 0-111.047033 14.328649 434.976857 434.976857 0 1 0 538.859565 497.40883 37.868573 37.868573 0 0 1 37.356836-32.239462h6.652588a39.915523 39.915523 0 0 1 25.075136 15.863862 38.380311 38.380311 0 0 1 6.14085 28.657299 511.737479 511.737479 0 0 1-374.591835 405.296083 460.563731 460.563731 0 0 1-129.469582 17.910812z" fill="#8a8a8a" p-id="5540" data-spm-anchor-id="a313x.search_index.0.i1.2c6a3a81cDZ6E6" class=""></path><path d="M512 775.801694a35.821624 35.821624 0 0 1-27.122086-11.769962l-225.164491-224.652753a38.892048 38.892048 0 0 1 0-54.244173l225.164491-224.652753a39.915523 39.915523 0 0 1 27.122086-11.769962 37.868573 37.868573 0 0 1 27.122086 11.769962 39.915523 39.915523 0 0 1 11.769962 27.122086 35.821624 35.821624 0 0 1-11.769962 27.122086l-158.638618 158.638619h358.216235a38.892048 38.892048 0 1 1 0 77.272359h-358.216235l159.150356 159.150356a38.892048 38.892048 0 0 1 11.769962 27.122086 37.868573 37.868573 0 0 1-11.769962 27.122087 36.845098 36.845098 0 0 1-27.633824 11.769962z" fill="#8a8a8a" p-id="5541" data-spm-anchor-id="a313x.search_index.0.i0.2c6a3a81cDZ6E6" class=""></path></svg>